<svg xmlns="http://www.w3.org/2000/svg" viewBox="0 0 130 40" height="40">
  <circle cx="20" cy="20" r="13" fill="#25D366"/>
  <path d="M27 22.8c-.4-.2-2.2-1.1-2.5-1.2-.3-.1-.6-.2-.8.2-.3.4-1 1.2-1.2 1.5-.2.3-.5.3-.9.1-2.4-1.2-4-2.2-5.5-5-.4-.7.4-.7 1.2-2.2.1-.3 0-.6-.1-.8-.1-.2-.8-2-1.1-2.7-.3-.7-.6-.6-.8-.6H14c-.3 0-.7.1-1 .4-.4.4-1.4 1.4-1.4 3.4s1.5 3.9 1.7 4.2c.2.3 2.9 4.4 7 6.2 2.6 1.1 3.6 1.2 4.9 1 .8-.1 2.4-1 2.7-1.9.3-.9.3-1.7.2-1.9l-.1.3z" fill="#fff"/>
  <text x="40" y="26" font-family="sans-serif" font-size="15" font-weight="600" fill="#25D366">WhatsApp</text>
</svg>